<?xml version="1.0" encoding="UTF-8" standalone="no"?>
<svg
   xmlns:dc="http://purl.org/dc/elements/1.1/"
   xmlns:cc="http://creativecommons.org/ns#"
   xmlns:rdf="http://www.w3.org/1999/02/22-rdf-syntax-ns#"
   xmlns:svg="http://www.w3.org/2000/svg"
   xmlns="http://www.w3.org/2000/svg"
   xmlns:sodipodi="http://sodipodi.sourceforge.net/DTD/sodipodi-0.dtd"
   xmlns:inkscape="http://www.inkscape.org/namespaces/inkscape"
   aria-hidden="true"
   focusable="false"
   data-prefix="fas"
   data-icon="angle-double-right"
   class="svg-inline--fa fa-angle-double-right fa-w-14"
   role="img"
   viewBox="0 0 448 512"
   version="1.1"
   id="svg4"
   sodipodi:docname="angle-double2.svg"
   inkscape:version="1.0.2-2 (e86c870879, 2021-01-15)">
  <metadata
     id="metadata10">
    <rdf:RDF>
      <cc:Work
         rdf:about="">
        <dc:format>image/svg+xml</dc:format>
        <dc:type
           rdf:resource="http://purl.org/dc/dcmitype/StillImage" />
        <dc:title></dc:title>
      </cc:Work>
    </rdf:RDF>
  </metadata>
  <defs
     id="defs8" />
  <sodipodi:namedview
     pagecolor="#ffffff"
     bordercolor="#666666"
     borderopacity="1"
     objecttolerance="10"
     gridtolerance="10"
     guidetolerance="10"
     inkscape:pageopacity="0"
     inkscape:pageshadow="2"
     inkscape:window-width="1920"
     inkscape:window-height="1001"
     id="namedview6"
     showgrid="false"
     inkscape:zoom="1.6210938"
     inkscape:cx="96.616867"
     inkscape:cy="256"
     inkscape:window-x="-9"
     inkscape:window-y="-9"
     inkscape:window-maximized="1"
     inkscape:current-layer="svg4" />
  <path
     fill="currentColor"
     d="M224.3 273l-136 136c-9.4 9.4-24.6 9.4-33.9 0l-22.6-22.6c-9.4-9.4-9.4-24.6 0-33.9l96.4-96.4-96.4-96.4c-9.4-9.4-9.4-24.6 0-33.9L54.3 103c9.4-9.4 24.6-9.4 33.9 0l136 136c9.5 9.4 9.5 24.6.1 34zm192-34l-136-136c-9.4-9.4-24.6-9.4-33.9 0l-22.6 22.6c-9.4 9.4-9.4 24.6 0 33.9l96.4 96.4-96.4 96.4c-9.4 9.4-9.4 24.6 0 33.9l22.6 22.6c9.4 9.4 24.6 9.4 33.9 0l136-136c9.4-9.2 9.4-24.4 0-33.8z"
     id="path2"
     style="fill:#ffffff;fill-opacity:1;stroke:#000000;stroke-opacity:1;stroke-width:2;stroke-miterlimit:4;stroke-dasharray:none" />
  <path
     style="fill:#f9f9f9;fill-opacity:0;fill-rule:evenodd;stroke:#000000;stroke-width:0.617839"
     d="m 65.925196,415.13817 c -5.829583,-1.47264 -8.561247,-3.61165 -22.727755,-17.79679 -16.994176,-17.01653 -17.520333,-17.85253 -17.520333,-27.83777 0,-11.05585 -3.806464,-6.50528 53.276839,-63.69159 L 128.6763,255.99994 78.660064,205.87949 c -57.114548,-57.23356 -52.982956,-52.29097 -52.982956,-63.3831 0,-6.16214 0.09868,-6.6571 2.029213,-10.17832 1.453001,-2.65022 5.919698,-7.67964 15.730121,-17.71183 12.410201,-12.69075 14.107695,-14.20138 18.01898,-16.035484 3.87847,-1.818713 4.883274,-2.024853 9.869879,-2.024853 4.99231,0 5.982794,0.203782 9.828415,2.022101 4.071168,1.924966 7.662794,5.406716 74.766144,72.478856 67.47778,67.4464 70.57644,70.64125 72.52339,74.77483 1.87863,3.98851 2.03353,4.78887 2.02953,10.48674 -0.008,10.78319 6.11493,3.83297 -74.28559,84.32876 -66.882521,66.96177 -70.895867,70.86089 -74.81084,72.68168 -4.559693,2.12063 -11.174921,2.89954 -15.451154,1.8193 z"
     id="path12" />
</svg>
