<?xml version="1.0" encoding="UTF-8" standalone="no"?>
<svg
   xmlns:dc="http://purl.org/dc/elements/1.1/"
   xmlns:cc="http://creativecommons.org/ns#"
   xmlns:rdf="http://www.w3.org/1999/02/22-rdf-syntax-ns#"
   xmlns:svg="http://www.w3.org/2000/svg"
   xmlns="http://www.w3.org/2000/svg"
   xmlns:xlink="http://www.w3.org/1999/xlink"
   xmlns:sodipodi="http://sodipodi.sourceforge.net/DTD/sodipodi-0.dtd"
   xmlns:inkscape="http://www.inkscape.org/namespaces/inkscape"
   width="24"
   height="24"
   viewBox="0 0 24 24"
   version="1.1"
   id="svg8"
   sodipodi:docname="instagram2.svg"
   inkscape:version="1.0.2-2 (e86c870879, 2021-01-15)">
  <metadata
     id="metadata14">
    <rdf:RDF>
      <cc:Work
         rdf:about="">
        <dc:format>image/svg+xml</dc:format>
        <dc:type
           rdf:resource="http://purl.org/dc/dcmitype/StillImage" />
      </cc:Work>
    </rdf:RDF>
  </metadata>
  <defs
     id="defs12">
    <linearGradient
       inkscape:collect="always"
       id="linearGradient2185">
      <stop
         style="stop-color:#ee2a7b;stop-opacity:0.97254902"
         offset="0"
         id="stop2181" />
      <stop
         style="stop-color:#002aff;stop-opacity:1"
         offset="1"
         id="stop2183" />
    </linearGradient>
    <linearGradient
       inkscape:collect="always"
       id="linearGradient2179">
      <stop
         style="stop-color:#ee2a7b;stop-opacity:0.97254902"
         offset="0"
         id="stop2175" />
      <stop
         style="stop-color:#002aff;stop-opacity:1"
         offset="1"
         id="stop2177" />
    </linearGradient>
    <linearGradient
       inkscape:collect="always"
       id="linearGradient2173">
      <stop
         style="stop-color:#ee2a7b;stop-opacity:0.97254902"
         offset="0"
         id="stop2169" />
      <stop
         style="stop-color:#002aff;stop-opacity:1"
         offset="1"
         id="stop2171" />
    </linearGradient>
    <linearGradient
       inkscape:collect="always"
       id="linearGradient944">
      <stop
         style="stop-color:#f9ea08;stop-opacity:1"
         offset="0"
         id="stop940" />
      <stop
         style="stop-color:#ee2a7b;stop-opacity:0"
         offset="1"
         id="stop942" />
    </linearGradient>
    <linearGradient
       inkscape:collect="always"
       id="linearGradient938">
      <stop
         style="stop-color:#f9ea08;stop-opacity:1"
         offset="0"
         id="stop934" />
      <stop
         style="stop-color:#ee2a7b;stop-opacity:0"
         offset="1"
         id="stop936" />
    </linearGradient>
    <linearGradient
       inkscape:collect="always"
       id="linearGradient926">
      <stop
         style="stop-color:#f9ea08;stop-opacity:1"
         offset="0"
         id="stop922" />
      <stop
         style="stop-color:#ee2a7b;stop-opacity:0"
         offset="1"
         id="stop924" />
    </linearGradient>
    <linearGradient
       inkscape:collect="always"
       xlink:href="#linearGradient926"
       id="linearGradient928"
       x1="3.2493284"
       y1="24.654905"
       x2="18.754227"
       y2="-0.82053334"
       gradientUnits="userSpaceOnUse" />
    <linearGradient
       inkscape:collect="always"
       xlink:href="#linearGradient944"
       id="linearGradient930"
       x1="3.2493284"
       y1="24.654905"
       x2="18.754227"
       y2="-0.82053334"
       gradientUnits="userSpaceOnUse" />
    <linearGradient
       inkscape:collect="always"
       xlink:href="#linearGradient938"
       id="linearGradient932"
       x1="3.2493284"
       y1="24.654905"
       x2="18.754227"
       y2="-0.82053334"
       gradientUnits="userSpaceOnUse" />
    <linearGradient
       inkscape:collect="always"
       xlink:href="#linearGradient2173"
       id="linearGradient2090"
       gradientUnits="userSpaceOnUse"
       x1="3.2493284"
       y1="24.654905"
       x2="18.754227"
       y2="-0.82053334" />
    <linearGradient
       inkscape:collect="always"
       xlink:href="#linearGradient2185"
       id="linearGradient2092"
       gradientUnits="userSpaceOnUse"
       x1="3.2493284"
       y1="24.654905"
       x2="18.754227"
       y2="-0.82053334" />
    <linearGradient
       inkscape:collect="always"
       xlink:href="#linearGradient2179"
       id="linearGradient2094"
       gradientUnits="userSpaceOnUse"
       x1="3.2493284"
       y1="24.654905"
       x2="18.754227"
       y2="-0.82053334" />
  </defs>
  <sodipodi:namedview
     pagecolor="#ffffff"
     bordercolor="#666666"
     borderopacity="1"
     objecttolerance="10"
     gridtolerance="10"
     guidetolerance="10"
     inkscape:pageopacity="0"
     inkscape:pageshadow="2"
     inkscape:window-width="872"
     inkscape:window-height="1030"
     id="namedview10"
     showgrid="false"
     inkscape:zoom="24.454109"
     inkscape:cx="1.5982128"
     inkscape:cy="9.8470584"
     inkscape:window-x="203"
     inkscape:window-y="5"
     inkscape:window-maximized="0"
     inkscape:current-layer="svg8"
     inkscape:document-rotation="0" />
  <path
     d="M11.999,7.377c-2.554,0-4.623,2.07-4.623,4.623c0,2.554,2.069,4.624,4.623,4.624c2.552,0,4.623-2.07,4.623-4.624 C16.622,9.447,14.551,7.377,11.999,7.377L11.999,7.377z M11.999,15.004c-1.659,0-3.004-1.345-3.004-3.003 c0-1.659,1.345-3.003,3.004-3.003s3.002,1.344,3.002,3.003C15.001,13.659,13.658,15.004,11.999,15.004L11.999,15.004z"
     id="path2"
     style="fill:url(#linearGradient928);fill-opacity:1" />
  <circle
     cx="16.806"
     cy="7.207"
     r="1.078"
     id="circle4"
     style="fill:url(#linearGradient930);fill-opacity:1" />
  <path
     d="M 20.533,6.111 C 20.064,4.902 19.109,3.946 17.9,3.479 17.201,3.216 16.462,3.075 15.714,3.059 14.751,3.017 14.446,3.005 12.004,3.005 c -2.442,0 -2.755,0 -3.71,0.054 C 7.548,3.074 6.809,3.215 6.11,3.479 4.9,3.946 3.945,4.902 3.477,6.111 3.214,6.811 3.073,7.549 3.058,8.297 3.015,9.259 3.002,9.564 3.002,12.007 c 0,2.442 0,2.753 0.056,3.71 0.015,0.748 0.156,1.486 0.419,2.187 0.469,1.208 1.424,2.164 2.634,2.632 0.696,0.272 1.435,0.426 2.185,0.45 0.963,0.042 1.268,0.055 3.71,0.055 2.442,0 2.755,0 3.71,-0.055 0.747,-0.015 1.486,-0.157 2.186,-0.419 1.209,-0.469 2.164,-1.424 2.633,-2.633 0.263,-0.7 0.404,-1.438 0.419,-2.186 0.043,-0.962 0.056,-1.267 0.056,-3.71 0,-2.443 0,-2.753 -0.056,-3.71 C 20.941,7.57 20.801,6.819 20.533,6.111 Z m -1.218,9.532 c -0.007,0.576 -0.111,1.147 -0.311,1.688 -0.305,0.787 -0.926,1.409 -1.712,1.711 -0.535,0.199 -1.099,0.303 -1.67,0.311 -0.95,0.044 -1.218,0.055 -3.654,0.055 -2.438,0 -2.687,0 -3.655,-0.055 C 7.744,19.346 7.178,19.241 6.644,19.042 5.855,18.741 5.23,18.119 4.925,17.331 4.729,16.797 4.623,16.232 4.614,15.662 4.571,14.712 4.561,14.444 4.561,12.008 c 0,-2.437 0,-2.686 0.053,-3.655 C 4.621,7.777 4.725,7.207 4.925,6.666 5.23,5.877 5.855,5.256 6.644,4.954 7.178,4.756 7.744,4.651 8.313,4.643 9.264,4.6 9.531,4.588 11.968,4.588 c 2.437,0 2.687,0 3.654,0.055 0.571,0.007 1.135,0.112 1.67,0.311 0.786,0.303 1.407,0.925 1.712,1.712 0.196,0.534 0.302,1.099 0.311,1.669 0.043,0.951 0.054,1.218 0.054,3.655 0,2.436 0,2.698 -0.043,3.654 h -0.011 z"
     id="path6"
     style="mix-blend-mode:screen;fill:url(#linearGradient932);fill-opacity:1" />
  <path
     d="m 11.999,7.377 c -2.5540002,0 -4.6229992,2.0700004 -4.6229992,4.623 0,2.554 2.068999,4.624 4.6229992,4.624 2.552,0 4.623,-2.07 4.623,-4.624 0,-2.5529996 -2.071,-4.623 -4.623,-4.623 z m 0,7.627 c -1.659,0 -3.0039992,-1.345 -3.0039992,-3.003 0,-1.659 1.3449992,-3.0029996 3.0039992,-3.0029996 1.659001,0 3.002001,1.3439996 3.002001,3.0029996 0,1.658 -1.343,3.003 -3.002001,3.003 z"
     id="path2-5"
     style="fill:url(#linearGradient2090);fill-opacity:1" />
  <circle
     cx="16.806"
     cy="7.2070003"
     r="1.0779999"
     id="circle4-8"
     style="fill:url(#linearGradient2092);fill-opacity:1" />
  <path
     d="M 20.533001,6.111 C 20.064,4.902 19.109001,3.946 17.9,3.479 17.201,3.216 16.462,3.075 15.714001,3.059 c -0.963,-0.042 -1.268,-0.054 -3.71,-0.054 -2.4420002,0 -2.7550012,0 -3.7100012,0.054 -0.745999,0.015 -1.484999,0.156 -2.183999,0.42 -1.21,0.467 -2.165,1.423 -2.633,2.632 -0.263,0.7 -0.404,1.438 -0.419,2.186 -0.043,0.9620004 -0.056,1.2670004 -0.056,3.71 0,2.442 0,2.753 0.056,3.71 0.015,0.748 0.156,1.486 0.419,2.187 0.469,1.208 1.424,2.164 2.634,2.632 0.695999,0.272 1.435,0.426 2.184999,0.45 0.963,0.042 1.268,0.055 3.7100002,0.055 2.442,0 2.755,0 3.710001,-0.055 0.747,-0.015 1.486,-0.157 2.186,-0.419 1.208999,-0.469 2.164,-1.424 2.632999,-2.633 0.263001,-0.7 0.404,-1.438 0.419,-2.186 0.043,-0.962 0.056,-1.267 0.056,-3.71 0,-2.4429996 0,-2.7529996 -0.056,-3.71 C 20.941,7.57 20.801,6.819 20.533001,6.111 Z m -1.218,9.532 c -0.007,0.576 -0.111001,1.147 -0.311,1.688 -0.305,0.787 -0.926,1.409 -1.712,1.711 -0.535,0.199 -1.099,0.303 -1.67,0.311 C 14.672,19.397 14.404,19.408 11.968,19.408 c -2.4379992,0 -2.6869992,0 -3.6549992,-0.055 -0.569001,-0.007 -1.135,-0.112 -1.669,-0.311 -0.789,-0.301 -1.414,-0.923 -1.719,-1.711 -0.196,-0.534 -0.302,-1.099 -0.311,-1.669 -0.043,-0.95 -0.053,-1.218 -0.053,-3.654 0,-2.4369996 0,-2.6859996 0.053,-3.655 0.007,-0.576 0.111,-1.146 0.311,-1.687 0.305,-0.789 0.93,-1.41 1.719,-1.712 0.534,-0.198 1.099999,-0.303 1.668999,-0.311 0.951,-0.043 1.218001,-0.055 3.6550002,-0.055 2.437,0 2.687,0 3.654,0.055 0.571001,0.007 1.135001,0.112 1.670001,0.311 0.786,0.303 1.407,0.925 1.712,1.712 0.196,0.534 0.302,1.099 0.311,1.669 0.043,0.9510004 0.054,1.2180004 0.054,3.655 0,2.436 0,2.698 -0.043,3.654 h -0.011 z"
     id="path6-39"
     style="mix-blend-mode:screen;fill:url(#linearGradient2094);fill-opacity:1" />
</svg>
