<?xml version="1.0" encoding="UTF-8" standalone="no"?>
<svg
   xmlns:dc="http://purl.org/dc/elements/1.1/"
   xmlns:cc="http://creativecommons.org/ns#"
   xmlns:rdf="http://www.w3.org/1999/02/22-rdf-syntax-ns#"
   xmlns:svg="http://www.w3.org/2000/svg"
   xmlns="http://www.w3.org/2000/svg"
   xmlns:sodipodi="http://sodipodi.sourceforge.net/DTD/sodipodi-0.dtd"
   xmlns:inkscape="http://www.inkscape.org/namespaces/inkscape"
   width="24"
   height="24"
   viewBox="0 0 24 24"
   version="1.1"
   id="svg4"
   sodipodi:docname="youtube.svg"
   inkscape:version="1.0.2-2 (e86c870879, 2021-01-15)">
  <metadata
     id="metadata10">
    <rdf:RDF>
      <cc:Work
         rdf:about="">
        <dc:format>image/svg+xml</dc:format>
        <dc:type
           rdf:resource="http://purl.org/dc/dcmitype/StillImage" />
      </cc:Work>
    </rdf:RDF>
  </metadata>
  <defs
     id="defs8" />
  <sodipodi:namedview
     pagecolor="#ffffff"
     bordercolor="#666666"
     borderopacity="1"
     objecttolerance="10"
     gridtolerance="10"
     guidetolerance="10"
     inkscape:pageopacity="0"
     inkscape:pageshadow="2"
     inkscape:window-width="1920"
     inkscape:window-height="1001"
     id="namedview6"
     showgrid="false"
     inkscape:zoom="34.583333"
     inkscape:cx="12"
     inkscape:cy="12"
     inkscape:window-x="-9"
     inkscape:window-y="-9"
     inkscape:window-maximized="1"
     inkscape:current-layer="svg4" />
  <g
     id="g836">
    <path
       d="M21.593,7.203c-0.23-0.858-0.905-1.535-1.762-1.766C18.265,5.007,12,5,12,5S5.736,4.993,4.169,5.404 c-0.84,0.229-1.534,0.921-1.766,1.778c-0.413,1.566-0.417,4.814-0.417,4.814s-0.004,3.264,0.406,4.814 c0.23,0.857,0.905,1.534,1.763,1.765c1.582,0.43,7.83,0.437,7.83,0.437s6.265,0.007,7.831-0.403c0.856-0.23,1.534-0.906,1.767-1.763 C21.997,15.281,22,12.034,22,12.034S22.02,8.769,21.593,7.203z M9.996,15.005l0.005-6l5.207,3.005L9.996,15.005z"
       id="path2"
       style="fill:#dc0000;fill-opacity:1" />
  </g>
</svg>
